<?xml version="1.0" encoding="utf-8"?>
<!-- Generator: Adobe Illustrator 19.0.0, SVG Export Plug-In . SVG Version: 6.00 Build 0)  -->
<svg version="1.1" id="Layer_1" xmlns="http://www.w3.org/2000/svg" xmlns:xlink="http://www.w3.org/1999/xlink" x="0px" y="0px"
	 viewBox="-280 372 50 50" style="enable-background:new -280 372 50 50;" xml:space="preserve">
<style type="text/css">
	.st0{fill:#3C383B;}
	.st1{fill:#FFFFFF;}
	.st2{fill:#FFFDFD;}
</style>
<circle class="st0" cx="-129" cy="399.4" r="25"/>
<g>
	<polygon class="st1" points="-128.3,401.7 -143.4,388.5 -113.2,388.5 	"/>
	<polygon class="st1" points="-134.3,398.8 -144.9,408.1 -144.9,389.6 	"/>
	<polygon class="st1" points="-132.9,400 -128.3,404.1 -123.7,400 -113.2,409.2 -143.4,409.2 	"/>
	<polygon class="st1" points="-122.3,398.8 -111.7,389.6 -111.7,408.1 	"/>
</g>
<circle class="st0" cx="-254.8" cy="397.2" r="25"/>
<g id="XMLID_1_">
	<path id="XMLID_48_" class="st2" d="M-271.9,397.1c0-9.3,7.6-17.2,17.3-17.1c9.3,0.1,16.9,7.6,16.9,17.1c0,9.5-7.9,17.4-17.7,17.1
		C-264.4,414-271.9,406.5-271.9,397.1z M-254.7,411.7c0.4,0,0.9-0.1,1.3-0.1c1.3-0.1,2.6-0.4,3.9-0.9c0.3-0.1,0.3-0.2,0.3-0.5
		c-0.3-1.6-0.7-3.2-1.1-4.7c-0.5-1.9-1.1-3.7-1.8-5.5c-0.1-0.3-0.2-0.3-0.5-0.2c-0.6,0.2-1.3,0.5-1.9,0.8c-2.6,1.2-4.9,2.8-6.9,4.9
		c-0.8,0.9-1.6,1.9-2.2,2.9c-0.1,0.2-0.1,0.3,0.1,0.5c0.3,0.2,0.6,0.4,0.9,0.6C-260.2,410.9-257.6,411.7-254.7,411.7z M-268.4,396.8
		c-0.2,0-0.3,0-0.5,0c0,0,0,0,0,0c-0.3,0-0.3,0.1-0.3,0.3c0,0.5,0,1,0.1,1.6c0.3,2.9,1.4,5.5,3.3,7.8c0.3,0.4,0.3,0.5,0.6,0
		c1.2-1.8,2.7-3.4,4.3-4.9c1.4-1.2,2.9-2.3,4.6-3.1c0.9-0.5,1.9-0.8,2.9-1.2c0.3-0.1,0.3-0.2,0.2-0.4c-0.3-0.6-0.5-1.1-0.8-1.7
		c-0.2-0.4-0.2-0.4-0.6-0.3c-1.6,0.4-3.2,0.8-4.8,1.1c-1.8,0.3-3.6,0.5-5.4,0.7C-266.2,396.7-267.3,396.8-268.4,396.8z
		 M-267.9,394.1c0.6,0,1.2,0,1.9-0.1c1.1-0.1,2.3-0.2,3.4-0.3c2.2-0.3,4.4-0.7,6.6-1.2c0.3-0.1,0.3-0.1,0.2-0.4
		c-1.2-2.1-2.5-4.2-3.9-6.2c-0.3-0.5-0.7-1-1.1-1.5c-0.1-0.2-0.3-0.2-0.4-0.1c-0.2,0.1-0.5,0.3-0.7,0.4c-1.3,0.7-2.5,1.7-3.6,2.8
		c-1.3,1.4-2.2,3-2.9,4.8c-0.2,0.5-0.3,1-0.4,1.5c-0.1,0.3,0,0.4,0.3,0.4C-268.4,394.1-268.2,394.1-267.9,394.1z M-255.2,382.7
		c-0.6,0-1.6,0.1-2.5,0.3c-0.3,0.1-0.4,0.1-0.2,0.4c0.4,0.5,0.7,1,1.1,1.6c1.4,2,2.6,4.1,3.8,6.2c0.2,0.3,0.2,0.4,0.6,0.2
		c1.2-0.5,2.3-1,3.3-1.7c1.4-0.9,2.6-1.8,3.6-3.1c0.2-0.3,0.2-0.3,0-0.5c-0.5-0.4-1-0.8-1.5-1.1C-249.4,383.5-252,382.7-255.2,382.7
		z M-240.3,396.3c-0.1-0.9-0.2-1.9-0.5-2.9c-0.5-1.8-1.3-3.5-2.5-5c-0.2-0.3-0.3-0.3-0.5,0c-0.9,1-1.9,2-3,2.8
		c-1.4,1-2.9,1.8-4.5,2.5c-0.3,0.1-0.3,0.2-0.2,0.4c0.3,0.7,0.6,1.4,0.9,2c0.2,0.4,0.2,0.5,0.7,0.4c0.7-0.1,1.4-0.1,2.1-0.1
		c1.2,0,2.4,0,3.6,0.1c1.1,0.1,2.2,0.2,3.3,0.4C-240.3,397-240.3,397-240.3,396.3z M-246.6,398.7c-0.7,0-1.6,0-2.4,0.1
		c-0.4,0-0.5,0.1-0.3,0.5c0.3,0.8,0.5,1.6,0.8,2.4c0.7,2.3,1.3,4.7,1.8,7.1c0.1,0.3,0.1,0.4,0.4,0.2c1.5-1.1,2.7-2.4,3.7-4
		c0.9-1.5,1.6-3.1,2-4.9c0.1-0.5,0.1-0.6-0.4-0.7C-242.8,398.9-244.6,398.7-246.6,398.7z"/>
</g>
</svg>
