<?xml version="1.0" encoding="utf-8"?>
<!-- Generator: Adobe Illustrator 19.0.0, SVG Export Plug-In . SVG Version: 6.00 Build 0)  -->
<svg version="1.1" id="Layer_1" xmlns="http://www.w3.org/2000/svg" xmlns:xlink="http://www.w3.org/1999/xlink" x="0px" y="0px"
	 viewBox="-280 372 50 50" style="enable-background:new -280 372 50 50;" xml:space="preserve">
<style type="text/css">
	.st0{fill:#FFFFFF;}
	.st1{fill:#323131;}
	.st2{fill:#373737;}
</style>
<circle class="st0" cx="-255" cy="397" r="25"/>
<g>
	<rect x="-210.3" y="389.4" class="st0" width="6.3" height="20.2"/>
	<circle class="st0" cx="-207.2" cy="383" r="3.6"/>
	<path class="st0" d="M-180.5,398.5c0-5.4-1.2-9.6-7.5-9.6c-3,0-5.1,1.7-5.9,3.3h-0.1v-2.8h-6v20.2h6.3v-10c0-2.6,0.5-5.2,3.8-5.2
		c3.2,0,3.3,3,3.3,5.4v9.8h6.3C-180.5,409.6-180.5,398.5-180.5,398.5z"/>
</g>
<g>
	<path class="st1" d="M-250.6,407.9c1.8-0.2,3.5-0.5,5.1-1.2c3.1-1.3,5-3.6,5.8-6.9c0.5-2,0.6-4,0.3-6.1c-0.3-1.7-1-3.2-2.2-4.5
		c-0.2-0.2-0.2-0.3-0.1-0.6c0.6-2,0.4-4.1-0.3-6c-0.1-0.2-0.2-0.3-0.4-0.3c-1.2,0-2.4,0.4-3.5,0.9c-1,0.4-1.9,1-2.7,1.6
		c-0.2,0.1-0.3,0.1-0.5,0.1c-2.9-0.7-5.8-0.9-8.8-0.6c-1,0.1-2,0.3-3,0.6c-0.3,0.1-0.5,0-0.7-0.1c-1.4-0.9-2.8-1.7-4.5-2.2
		c-0.6-0.1-1.1-0.2-1.7-0.2c-0.2,0-0.4,0.1-0.5,0.3c-0.7,2-0.9,4-0.2,6.1c0.1,0.2,0,0.3-0.1,0.4c-1.9,2.2-2.6,4.8-2.4,7.7
		c0.1,1.8,0.4,3.5,1.1,5.1c1.2,2.6,3.3,4.3,6,5.2c1.3,0.4,2.7,0.7,4.1,0.9c-0.9,0.9-1.3,1.9-1.5,3.1c0,0.1-0.1,0.2-0.2,0.3
		c-1.6,0.6-3.2,0.9-4.8,0.1c-0.9-0.5-1.6-1.2-2.1-2c-0.7-1.1-1.6-2-2.8-2.5c-0.5-0.2-1.1-0.3-1.7-0.2c-0.2,0-0.5,0.1-0.5,0.3
		c-0.1,0.2,0.1,0.4,0.2,0.6c0.2,0.2,0.4,0.4,0.6,0.5c1.4,0.8,2.2,2.1,2.8,3.5c0.8,2,2.3,2.9,4.3,3.3c1.3,0.2,2.5,0.1,3.8-0.1
		c0.2-0.1,0.3,0,0.3,0.2c0,1.4,0,2.8,0,4.2c0,1-0.8,1.6-1.8,1.3c-2.9-0.9-5.5-2.4-7.8-4.3c-4.1-3.4-6.9-7.7-8.3-12.8
		c-0.7-2.6-1-5.2-0.8-7.9c0.3-5.4,2.2-10.1,5.5-14.3c3.7-4.6,8.5-7.5,14.3-8.7c2.1-0.4,4.2-0.6,6.4-0.5c5.7,0.3,10.8,2.4,15.1,6.2
		c3.8,3.3,6.3,7.4,7.6,12.3c0.7,2.6,1,5.3,0.8,8c-0.4,5.5-2.4,10.5-6,14.7c-2.9,3.4-6.5,5.8-10.7,7.2c-0.9,0.3-1.7,0-1.9-0.7
		c-0.1-0.2,0-0.4,0-0.6c0-2.2,0-4.4,0-6.6c0-1.1-0.2-2.2-0.6-3.2C-249.8,408.8-250.1,408.3-250.6,407.9z"/>
	<path class="st2" d="M-265.8,412.7c-0.3,0-0.7-0.3-0.6-0.5c0-0.2,0.2-0.3,0.4-0.3c0.3,0,0.7,0.3,0.6,0.5
		C-265.4,412.6-265.6,412.7-265.8,412.7z"/>
	<path class="st2" d="M-262,412c0.3,0,0.5,0.1,0.5,0.3c0,0.2-0.3,0.5-0.6,0.4c-0.2,0-0.5-0.1-0.4-0.3
		C-262.5,412.1-262.2,412-262,412z"/>
	<path class="st2" d="M-264,412.3c0.3,0,0.6,0.1,0.6,0.3c0,0.3-0.3,0.4-0.5,0.4c-0.2,0-0.5-0.1-0.5-0.4
		C-264.4,412.4-264.2,412.2-264,412.3z"/>
	<path class="st2" d="M-267.2,411.4c0,0.2-0.1,0.3-0.3,0.3c-0.2,0-0.6-0.4-0.6-0.6c0-0.2,0.1-0.3,0.3-0.3
		C-267.5,410.9-267.2,411.1-267.2,411.4z"/>
	<path class="st2" d="M-268.5,410c0,0.2,0,0.3-0.2,0.3c-0.2,0-0.5-0.3-0.5-0.5c0-0.2,0.1-0.3,0.3-0.3
		C-268.8,409.4-268.5,409.7-268.5,410z"/>
	<path class="st2" d="M-269.7,408.9c-0.3-0.1-0.4-0.2-0.5-0.5c0-0.2,0.1-0.3,0.3-0.2c0.3,0,0.4,0.2,0.4,0.4
		C-269.5,408.8-269.6,408.9-269.7,408.9z"/>
	<path class="st2" d="M-270.6,407.7c0,0.1-0.1,0.2-0.3,0.2c-0.2,0-0.4-0.1-0.4-0.3c0-0.1,0.1-0.3,0.3-0.2
		C-270.8,407.3-270.6,407.4-270.6,407.7z"/>
</g>
</svg>
