<?xml version="1.0" encoding="utf-8"?>
<!-- Generator: Adobe Illustrator 16.0.0, SVG Export Plug-In . SVG Version: 6.00 Build 0)  -->
<!DOCTYPE svg PUBLIC "-//W3C//DTD SVG 1.1//EN" "http://www.w3.org/Graphics/SVG/1.1/DTD/svg11.dtd">
<svg version="1.1" id="Layer_1" xmlns="http://www.w3.org/2000/svg" xmlns:xlink="http://www.w3.org/1999/xlink" x="0px" y="0px"
	 width="50px" height="50px" viewBox="0 0 50 50" enable-background="new 0 0 50 50" xml:space="preserve">
<circle fill="#3C383B" cx="25" cy="25" r="25"/>
<g>
	<path fill="#FFFFFF" d="M39.764,12.77c-1.24,0.736-2.613,1.27-4.074,1.559c-1.166-1.248-2.832-2.026-4.678-2.026
		c-3.541,0-6.411,2.87-6.411,6.412c0,0.503,0.057,0.99,0.165,1.461c-5.328-0.269-10.052-2.82-13.214-6.699
		c-0.551,0.945-0.869,2.048-0.869,3.224c0,2.225,1.134,4.186,2.853,5.335c-1.05-0.033-2.039-0.321-2.904-0.802
		c0,0.026,0,0.055,0,0.081c0,3.104,2.21,5.696,5.144,6.287c-0.54,0.146-1.105,0.227-1.691,0.227c-0.413,0-0.813-0.041-1.207-0.116
		c0.818,2.547,3.184,4.399,5.989,4.453c-2.195,1.719-4.958,2.744-7.963,2.744c-0.519,0-1.027-0.03-1.53-0.089
		c2.839,1.818,6.21,2.878,9.829,2.878c11.794,0,18.24-9.767,18.24-18.24c0-0.276-0.004-0.556-0.017-0.83
		c1.253-0.903,2.341-2.032,3.197-3.317c-1.147,0.51-2.383,0.854-3.683,1.009C38.268,15.523,39.283,14.269,39.764,12.77z"/>
</g>
</svg>
